<svg width="44" height="44" viewBox="0 0 44 44" fill="none" xmlns="http://www.w3.org/2000/svg">
<path d="M38.959 39.4171C39.7182 39.4173 40.334 40.0328 40.334 40.7921C40.3337 41.5512 39.7181 42.1669 38.959 42.1671H5.04199C4.28275 42.1671 3.66724 41.5513 3.66699 40.7921C3.66699 40.0327 4.2826 39.4171 5.04199 39.4171H38.959ZM37.9727 1.83606C38.6384 1.78816 39.252 2.23038 39.4082 2.8927C39.8092 4.59386 40.1974 7.39709 39.4551 10.1847C38.8632 12.4071 37.5592 14.5712 35.1143 16.1202L35.1406 16.1359C35.7766 16.5038 36.011 17.3069 35.6729 17.9591C34.0434 21.1013 30.3321 23.6249 23.0605 25.6281C21.4471 26.0725 20.0088 26.4055 18.7373 26.6984C17.4534 26.9941 16.3668 27.2429 15.3975 27.5284C13.4945 28.0891 12.1829 28.7516 11.0625 30.0118C9.46389 31.8101 8.84387 32.5767 7.50195 34.3019C7.0952 34.8248 6.37359 34.9841 5.78516 34.6798C5.19675 34.3754 4.90876 33.6938 5.10059 33.0597C5.47493 31.8222 5.88827 30.6268 6.33594 29.4728C13.6768 10.5495 30.2372 3.14628 37.8398 1.85267L37.9727 1.83606ZM36.9785 4.83606C30.1466 6.4653 17.5229 12.6607 10.5146 26.8019C11.7418 25.8943 13.1046 25.3373 14.6201 24.8908C15.6853 24.5769 16.86 24.3087 18.1191 24.0187C19.3908 23.7258 20.7787 23.4041 22.3301 22.9767C28.177 21.366 31.0667 19.5499 32.5049 17.7882L31.5029 17.2081C31.0404 16.9404 30.7749 16.429 30.8223 15.8966C30.8697 15.3643 31.2212 14.9076 31.7236 14.7257C34.8825 13.5835 36.2444 11.5553 36.7979 9.47767C37.2243 7.87631 37.1751 6.20365 36.9785 4.83606Z" fill="#242424"/>
</svg>
