<svg width="44" height="44" viewBox="0 0 44 44" fill="none" xmlns="http://www.w3.org/2000/svg">
<path d="M32.9268 17.4165C34.8776 17.4165 36.646 18.5655 37.4385 20.3481L41.3652 29.1831C44.0786 35.289 39.6085 42.1664 32.9268 42.1665C26.3493 42.1663 21.9154 35.5018 24.3672 29.4692L24.4893 29.1831L28.416 20.3481C29.2085 18.5657 30.9761 17.4166 32.9268 17.4165ZM31.167 1.8335C35.217 1.8335 38.4998 5.11657 38.5 9.1665V14.2085C38.5 14.9679 37.8844 15.5835 37.125 15.5835C36.3656 15.5835 35.75 14.9679 35.75 14.2085V9.1665C35.7498 6.63535 33.6982 4.5835 31.167 4.5835H11C8.46895 4.58367 6.41717 6.63546 6.41699 9.1665V33.0005C6.41717 35.5315 8.46895 37.5833 11 37.5835H19.709C20.4684 37.5835 21.084 38.1991 21.084 38.9585C21.084 39.7179 20.4684 40.3335 19.709 40.3335H11C7.0766 40.3333 3.87312 37.2521 3.67676 33.3774L3.66699 33.0005V9.1665C3.66717 5.11667 6.95017 1.83367 11 1.8335H31.167ZM32.9268 20.1665C32.0628 20.1666 31.2797 20.6759 30.9287 21.4653L27.002 30.2993C25.0964 34.5868 28.235 39.4163 32.9268 39.4165C37.6186 39.4164 40.7571 34.5868 38.8516 30.2993L34.9258 21.4653C34.5747 20.6758 33.7909 20.1665 32.9268 20.1665ZM19.709 19.2505C20.4682 19.2507 21.084 19.8662 21.084 20.6255C21.0838 21.3846 20.4681 22.0003 19.709 22.0005H13.292C12.5327 22.0005 11.9172 21.3847 11.917 20.6255C11.917 19.8661 12.5326 19.2505 13.292 19.2505H19.709ZM28.875 11.0005C29.6344 11.0005 30.25 11.6161 30.25 12.3755C30.2498 13.1347 29.6343 13.7505 28.875 13.7505H13.292C12.5327 13.7505 11.9172 13.1347 11.917 12.3755C11.917 11.6161 12.5326 11.0005 13.292 11.0005H28.875Z" fill="#242424"/>
</svg>
