<svg width="16" height="16" viewBox="0 0 16 16" fill="none" xmlns="http://www.w3.org/2000/svg">
<path d="M8.43227 13.6236L11.991 15.8712C12.6247 16.2718 13.4087 15.6774 13.2401 14.9218L12.2987 10.6836C12.2291 10.3672 12.3316 10.0355 12.5661 9.8226L15.7091 6.97286C16.2696 6.4646 15.971 5.50197 15.2329 5.43486L11.0899 5.06281C10.7804 5.03595 10.5111 4.8308 10.3903 4.53169L8.77299 0.535124C8.48366 -0.178375 7.51836 -0.178375 7.23077 0.535124L5.6135 4.53169C5.49262 4.8308 5.22337 5.03595 4.91387 5.06281L0.767072 5.43295C0.0290042 5.50006 -0.269544 6.46278 0.290856 6.97095L3.43383 9.82069C3.66829 10.0336 3.7709 10.3654 3.70124 10.6817L2.75977 14.9199C2.59132 15.6755 3.37522 16.2699 4.00893 15.8693L7.56776 13.6236C7.83335 13.4567 8.16668 13.4567 8.43227 13.6236Z" fill="black" fill-opacity="0.44"/>
</svg>
