<svg width="31" height="22" viewBox="0 0 31 22" fill="none" xmlns="http://www.w3.org/2000/svg">
<path fill-rule="evenodd" clip-rule="evenodd" d="M15.3341 4.56895C19.7836 4.56915 24.0629 6.27737 27.2876 9.34056C27.5305 9.57705 27.9186 9.57406 28.1578 9.33387L30.479 6.99321C30.6001 6.87138 30.6676 6.70636 30.6666 6.53467C30.6656 6.36297 30.5961 6.19875 30.4736 6.07835C22.0098 -2.02612 8.65714 -2.02612 0.193313 6.07835C0.0707088 6.19866 0.00114455 6.36283 1.39972e-05 6.53453C-0.00111655 6.70622 0.0662798 6.87129 0.187289 6.99321L2.50918 9.33387C2.74819 9.57442 3.13662 9.57741 3.37931 9.34056C6.60442 6.27717 10.8842 4.56894 15.3341 4.56895ZM15.3341 12.1841C17.7788 12.1839 20.1363 13.0919 21.9484 14.7314C22.1935 14.9641 22.5796 14.959 22.8185 14.72L25.1371 12.3794C25.2592 12.2566 25.3269 12.09 25.3252 11.917C25.3234 11.7439 25.2523 11.5788 25.1277 11.4585C19.6094 6.32967 11.0636 6.32967 5.54524 11.4585C5.42059 11.5788 5.34947 11.744 5.34784 11.9171C5.3462 12.0902 5.41419 12.2568 5.53654 12.3794L7.85442 14.72C8.09334 14.959 8.47944 14.9641 8.72454 14.7314C10.5355 13.0929 12.8911 12.1851 15.3341 12.1841ZM19.9786 17.3078C19.9821 17.4813 19.9138 17.6487 19.7898 17.7703L15.7792 21.8142C15.6617 21.9331 15.5014 22 15.3341 22C15.1669 22 15.0066 21.9331 14.889 21.8142L10.8778 17.7703C10.7538 17.6486 10.6857 17.4812 10.6894 17.3076C10.693 17.1341 10.7682 16.9697 10.8972 16.8534C13.4585 14.6888 17.2098 14.6888 19.7711 16.8534C19.9 16.9698 19.975 17.1342 19.9786 17.3078Z" fill="black"/>
</svg>
