<svg width="22" height="22" viewBox="0 0 22 22" fill="none" xmlns="http://www.w3.org/2000/svg">
<path fill-rule="evenodd" clip-rule="evenodd" d="M4.17391 1.61513C4.52866 1.37951 5.00743 1.47627 5.24325 1.83095C5.47886 2.1857 5.3821 2.66446 5.02742 2.90028C4.00083 3.58291 3.09766 4.43677 2.35848 5.42079C2.10262 5.76142 1.61905 5.82992 1.2784 5.57411C0.937748 5.31823 0.86823 4.83469 1.1241 4.49403C1.96839 3.37002 3.0009 2.39505 4.17391 1.61513ZM10.9997 20.0002C15.9703 20.0002 19.9997 15.9707 19.9997 11.0002C19.9997 6.02962 15.9703 2.00018 10.9997 2.00018C6.02913 2.00018 1.99969 6.02962 1.99969 11.0002C1.99969 15.9707 6.02913 20.0002 10.9997 20.0002ZM10.5567 6.99081C10.1307 6.99081 9.78524 7.33624 9.78524 7.76229V11.9723C9.78524 12.215 9.89966 12.4437 10.0938 12.5894L12.753 14.5836C13.0938 14.8392 13.5775 14.7701 13.8331 14.4293C14.0883 14.0886 14.0193 13.6058 13.6788 13.3502L11.3282 11.5865V7.76229C11.3282 7.33624 10.9828 6.99081 10.5567 6.99081ZM16.5294 1.83095C16.7652 1.47627 17.244 1.37951 17.5987 1.61513C18.7717 2.39505 19.8042 3.37002 20.6485 4.49403C20.9044 4.83469 20.8349 5.31823 20.4942 5.57411C20.1536 5.82992 19.67 5.76142 19.4141 5.42079C18.675 4.43677 17.7718 3.58291 16.7452 2.90028C16.3905 2.66446 16.2938 2.1857 16.5294 1.83095Z" fill="black" fill-opacity="0.44"/>
</svg>
