<svg width="44" height="44" viewBox="0 0 44 44" fill="none" xmlns="http://www.w3.org/2000/svg">
<path d="M38.959 39.4166C39.7181 39.4168 40.3338 40.0325 40.334 40.7916C40.334 41.5509 39.7182 42.1665 38.959 42.1666H5.04199C4.2826 42.1666 3.66699 41.551 3.66699 40.7916C3.66717 40.0324 4.28271 39.4166 5.04199 39.4166H38.959ZM15.8594 4.58461C17.3781 1.95416 20.7415 1.05253 23.3721 2.57094L35.2803 9.44594C37.9109 10.9647 38.8127 14.329 37.2939 16.9596L30.4189 28.8668C28.9002 31.4974 25.5359 32.3993 22.9053 30.8805L22.0938 30.4118L20.4736 33.2184C19.9824 34.0692 19.0743 34.5934 18.0918 34.5934H9.57422C8.163 34.5933 7.28072 33.0656 7.98633 31.8434L12.1328 24.6608L10.9971 24.0055L10.7559 23.858C8.31292 22.2774 7.51308 19.0402 8.98438 16.4918L15.8594 4.58461ZM21.9971 4.95277C20.6818 4.19367 19.0005 4.64442 18.2412 5.95961L11.3662 17.8668C10.6069 19.182 11.0571 20.8642 12.3721 21.6237L24.2803 28.4987C25.5956 29.2581 27.2777 28.8071 28.0371 27.4918L34.9121 15.5846C35.6715 14.2693 35.2206 12.5872 33.9053 11.8278L21.9971 4.95277Z" fill="#242424"/>
</svg>
