<svg width="44" height="44" viewBox="0 0 44 44" fill="none" xmlns="http://www.w3.org/2000/svg">
<path d="M28.4163 8.70833V8.25C28.4163 5.21243 25.9539 2.75 22.9163 2.75H12.833C9.79544 2.75 7.33301 5.21243 7.33301 8.25V17.4167C7.33301 20.4542 9.79544 22.9167 12.833 22.9167H16.4424" stroke="#242424" stroke-width="2.75" stroke-linecap="round" stroke-linejoin="round"/>
<path d="M27.4277 30.9699C25.2719 29.3988 23.4476 28.1118 21.1654 28.427C19.9155 28.5996 18.5212 29.0285 17.417 29.4267V26.6138C18.4728 26.2567 19.7412 25.8946 20.9371 25.7294C23.9535 25.3128 26.3318 27.0468 28.3838 28.5429L28.4801 28.6131C30.6359 30.1842 32.4601 31.4712 34.7424 31.156C35.9365 30.9911 37.4676 30.3666 38.7563 29.7414C39.3883 29.4348 39.9402 29.1389 40.3337 28.9199V31.8639C40.0803 31.9958 39.8036 32.1357 39.5103 32.278C38.1929 32.9172 36.4496 33.6494 34.9707 33.8536C31.9543 34.2702 29.576 32.5362 27.524 31.0401L27.4277 30.9699Z" fill="#242424"/>
<path fill-rule="evenodd" clip-rule="evenodd" d="M32.5421 22C34.8167 22 36.667 20.1494 36.667 17.8751C36.667 15.6006 34.8167 13.75 32.5421 13.75C30.2673 13.75 28.417 15.6006 28.417 17.8751C28.417 20.1494 30.2673 22 32.5421 22ZM32.5421 16.235C33.4462 16.235 34.182 16.9708 34.182 17.8751C34.182 18.7794 33.4462 19.515 32.5421 19.515C31.6378 19.515 30.902 18.7794 30.902 17.8751C30.902 16.9708 31.6378 16.235 32.5421 16.235Z" fill="#242424"/>
<rect x="17.875" y="8.7085" width="22.9167" height="32.0833" rx="4.125" stroke="#242424" stroke-width="2.75"/>
<path d="M8.02045 35.1084C3.91955 34.6072 2.1544 31.822 1.8736 25.9204C1.8631 25.6997 2.20143 25.6569 2.26277 25.8692C3.48056 30.0833 5.53002 31.8084 8.02051 31.8084L8.02045 35.1084Z" fill="#242424"/>
<path d="M12.214 32.6642C12.5589 33.0198 12.5589 33.585 12.214 33.9406L9.59517 36.6406C9.02187 37.2316 8.02051 36.8258 8.02051 36.0023L8.02051 30.6025C8.02051 29.779 9.02187 29.3732 9.59517 29.9643L12.214 32.6642Z" fill="#242424"/>
</svg>
