<svg width="36" height="36" viewBox="0 0 36 36" fill="none" xmlns="http://www.w3.org/2000/svg">
<path d="M30.3887 29.3839C30.9434 29.384 31.3926 29.8341 31.3926 30.3888C31.3923 30.9433 30.9432 31.3926 30.3887 31.3927H5.61133C5.05692 31.3924 4.60767 30.9432 4.60742 30.3888C4.60742 29.8342 5.05677 29.3841 5.61133 29.3839H30.3887ZM19.3105 5.96298C21.0723 4.15135 23.9824 4.15328 25.7422 5.96689C27.4311 7.70778 27.4295 10.4763 25.7383 12.2149L13.7383 24.5489C13.2834 25.0164 12.6938 25.3301 12.0518 25.4454L7.73926 26.2188C6.59269 26.4246 5.5914 25.4254 5.79492 24.2784L6.5918 19.7901C6.69712 19.1971 6.97768 18.6488 7.39746 18.2169L19.3105 5.96298ZM24.3008 7.36533C23.3296 6.36453 21.7233 6.36375 20.751 7.36337L8.83789 19.6173C8.69829 19.761 8.60446 19.9435 8.56934 20.1407L7.85645 24.1563L11.6963 23.4679C11.9254 23.4267 12.1365 23.3144 12.2988 23.1476L24.2988 10.8136C25.2318 9.85396 25.2328 8.32601 24.3008 7.36533Z" fill="#8F8F8F"/>
</svg>
