<svg width="44" height="44" viewBox="0 0 44 44" fill="none" xmlns="http://www.w3.org/2000/svg">
<path d="M21.999 20.6255C22.3843 20.6255 22.7523 20.7869 23.0127 21.0708L28.0547 26.5708C28.5678 27.1306 28.5295 28.001 27.9697 28.5142C27.4099 29.0267 26.5403 28.9888 26.0273 28.4292L23.374 25.5356V38.4429C23.374 39.2023 22.7584 39.8179 21.999 39.8179C21.2398 39.8176 20.624 39.2021 20.624 38.4429V25.5356L17.9717 28.4292C17.4585 28.9888 16.5881 29.0272 16.0283 28.5142C15.4687 28.0011 15.4314 27.1305 15.9443 26.5708L20.9854 21.0708C21.2457 20.7868 21.6138 20.6256 21.999 20.6255ZM21.5703 3.2085C28.7718 3.2085 34.8566 7.97608 36.8467 14.5239C36.8494 14.5329 36.852 14.5423 36.8545 14.5513C37.3689 14.8132 37.8409 15.1061 38.2949 15.4116C38.3212 15.4293 38.3471 15.4478 38.3721 15.4673C41.5155 17.9149 43.541 21.7402 43.541 26.0376C43.5409 33.4321 37.5468 39.4262 30.1523 39.4263H27.958C27.1986 39.4263 26.583 38.8107 26.583 38.0513C26.5832 37.292 27.1987 36.6763 27.958 36.6763H30.1523C36.0281 36.6762 40.7909 31.9133 40.791 26.0376C40.791 22.6412 39.2014 19.6166 36.7197 17.6665C35.9083 17.1235 35.1722 16.7249 34.251 16.481C33.3065 16.2309 32.08 16.1211 30.2832 16.2925C29.5272 16.3646 28.8553 15.8102 28.7832 15.0542C28.7111 14.2983 29.2656 13.6274 30.0215 13.5552C31.3719 13.4263 32.52 13.4297 33.5332 13.5522C31.421 9.06394 26.8568 5.9585 21.5703 5.9585C14.3761 5.95865 8.5244 11.7084 8.36035 18.8628C8.34935 19.3425 8.08924 19.7819 7.67383 20.022C5.00145 21.5663 3.20811 24.4512 3.20801 27.7534C3.20801 32.6814 7.2029 36.6763 12.1309 36.6763H16.041C16.8003 36.6763 17.4158 37.292 17.416 38.0513C17.416 38.8107 16.8004 39.4263 16.041 39.4263H12.1309C5.68412 39.4263 0.458008 34.2002 0.458008 27.7534C0.458107 23.7046 2.52066 20.1386 5.64648 18.0464C6.22439 9.755 13.1325 3.20864 21.5703 3.2085Z" fill="#242424"/>
</svg>
