<svg width="44" height="44" viewBox="0 0 44 44" fill="none" xmlns="http://www.w3.org/2000/svg">
<path d="M38.959 39.4162C39.7181 39.4163 40.3338 40.032 40.334 40.7912C40.334 41.5504 39.7182 42.166 38.959 42.1662H5.04199C4.2826 42.1661 3.66699 41.5505 3.66699 40.7912C3.66717 40.0319 4.28271 39.4162 5.04199 39.4162H38.959ZM15.8594 4.58412C17.3781 1.95367 20.7415 1.05205 23.3721 2.57045L35.2803 9.44545C37.9109 10.9642 38.8127 14.3285 37.2939 16.9591L30.4189 28.8663C28.9002 31.497 25.5359 32.3988 22.9053 30.88L22.0938 30.4113L20.4736 33.2179C19.9824 34.0688 19.0743 34.5929 18.0918 34.5929H9.57422C8.163 34.5928 7.28072 33.0651 7.98633 31.8429L12.1328 24.6603L10.9971 24.005L10.7559 23.8576C8.31292 22.2769 7.51308 19.0397 8.98438 16.4913L15.8594 4.58412ZM21.9971 4.95228C20.6818 4.19318 19.0005 4.64393 18.2412 5.95912L11.3662 17.8663C10.6069 19.1815 11.0571 20.8637 12.3721 21.6232L24.2803 28.4982C25.5956 29.2576 27.2777 28.8067 28.0371 27.4913L34.9121 15.5841C35.6715 14.2688 35.2206 12.5867 33.9053 11.8273L21.9971 4.95228Z" fill="#242424"/>
</svg>
