<svg width="44" height="44" viewBox="0 0 44 44" fill="none" xmlns="http://www.w3.org/2000/svg">
<path d="M38.959 39.4176C39.7182 39.4178 40.334 40.0333 40.334 40.7926C40.3337 41.5517 39.7181 42.1674 38.959 42.1676H5.04199C4.28275 42.1676 3.66724 41.5518 3.66699 40.7926C3.66699 40.0332 4.2826 39.4176 5.04199 39.4176H38.959ZM37.9727 1.83655C38.6384 1.78865 39.252 2.23087 39.4082 2.89319C39.8092 4.59435 40.1974 7.39758 39.4551 10.1852C38.8632 12.4075 37.5592 14.5717 35.1143 16.1207L35.1406 16.1364C35.7766 16.5043 36.011 17.3074 35.6729 17.9596C34.0434 21.1018 30.3321 23.6253 23.0605 25.6285C21.4471 26.073 20.0088 26.406 18.7373 26.6989C17.4534 26.9946 16.3668 27.2434 15.3975 27.5289C13.4945 28.0896 12.1829 28.7521 11.0625 30.0123C9.46389 31.8106 8.84387 32.5772 7.50195 34.3024C7.0952 34.8253 6.37359 34.9846 5.78516 34.6803C5.19675 34.3759 4.90876 33.6943 5.10059 33.0602C5.47493 31.8227 5.88827 30.6273 6.33594 29.4733C13.6768 10.55 30.2372 3.14676 37.8398 1.85315L37.9727 1.83655ZM36.9785 4.83655C30.1466 6.46579 17.5229 12.6611 10.5146 26.8024C11.7418 25.8948 13.1046 25.3377 14.6201 24.8912C15.6853 24.5774 16.86 24.3092 18.1191 24.0192C19.3908 23.7263 20.7787 23.4045 22.3301 22.9772C28.177 21.3665 31.0667 19.5504 32.5049 17.7887L31.5029 17.2086C31.0404 16.9408 30.7749 16.4295 30.8223 15.8971C30.8697 15.3648 31.2212 14.9081 31.7236 14.7262C34.8825 13.584 36.2444 11.5558 36.7979 9.47815C37.2243 7.87679 37.1751 6.20414 36.9785 4.83655Z" fill="#242424"/>
</svg>
