<svg width="44" height="44" viewBox="0 0 44 44" fill="none" xmlns="http://www.w3.org/2000/svg">
<path d="M32.9258 17.416C34.8766 17.4161 36.6451 18.5651 37.4375 20.3477L41.3643 29.1826C44.0777 35.2886 39.6076 42.166 32.9258 42.166C26.3483 42.1658 21.9145 35.5013 24.3662 29.4688L24.4883 29.1826L28.415 20.3477C29.2075 18.5652 30.9751 17.4161 32.9258 17.416ZM31.166 1.83301C35.216 1.83301 38.4988 5.11608 38.499 9.16602V14.208C38.499 14.9674 37.8834 15.583 37.124 15.583C36.3646 15.583 35.749 14.9674 35.749 14.208V9.16602C35.7488 6.63486 33.6972 4.58301 31.166 4.58301H10.999C8.46798 4.58318 6.41619 6.63497 6.41602 9.16602V33C6.41619 35.531 8.46798 37.5828 10.999 37.583H19.708C20.4674 37.583 21.083 38.1986 21.083 38.958C21.083 39.7174 20.4674 40.333 19.708 40.333H10.999C7.07562 40.3328 3.87214 37.2516 3.67578 33.377L3.66602 33V9.16602C3.66619 5.11619 6.94919 1.83318 10.999 1.83301H31.166ZM32.9258 20.166C32.0618 20.1661 31.2788 20.6754 30.9277 21.4648L27.001 30.2988C25.0954 34.5863 28.234 39.4158 32.9258 39.416C37.6177 39.416 40.7561 34.5863 38.8506 30.2988L34.9248 21.4648C34.5738 20.6753 33.7899 20.1661 32.9258 20.166ZM19.708 19.25C20.4672 19.2502 21.083 19.8657 21.083 20.625C21.0828 21.3841 20.4671 21.9998 19.708 22H13.291C12.5317 22 11.9162 21.3842 11.916 20.625C11.916 19.8656 12.5316 19.25 13.291 19.25H19.708ZM28.874 11C29.6334 11 30.249 11.6156 30.249 12.375C30.2488 13.1342 29.6333 13.75 28.874 13.75H13.291C12.5317 13.75 11.9162 13.1342 11.916 12.375C11.916 11.6156 12.5316 11 13.291 11H28.874Z" fill="#242424"/>
</svg>
