<svg width="44" height="44" viewBox="0 0 44 44" fill="none" xmlns="http://www.w3.org/2000/svg">
<path d="M28.4173 8.70833V8.25C28.4173 5.21243 25.9549 2.75 22.9173 2.75H12.834C9.79642 2.75 7.33398 5.21243 7.33398 8.25V17.4167C7.33398 20.4542 9.79642 22.9167 12.834 22.9167H16.4434" stroke="#242424" stroke-width="2.75" stroke-linecap="round" stroke-linejoin="round"/>
<path d="M27.4267 30.9704C25.2709 29.3993 23.4467 28.1123 21.1644 28.4275C19.9146 28.6001 18.5202 29.029 17.416 29.4272V26.6143C18.4718 26.2572 19.7403 25.895 20.9361 25.7299C23.9525 25.3133 26.3308 27.0473 28.3828 28.5434L28.4791 28.6136C30.6349 30.1847 32.4592 31.4717 34.7414 31.1565C35.9355 30.9916 37.4666 30.3671 38.7553 29.7419C39.3874 29.4353 39.9392 29.1394 40.3327 28.9203V31.8644C40.0793 31.9963 39.8026 32.1362 39.5093 32.2785C38.1919 32.9177 36.4486 33.6498 34.9697 33.8541C31.9533 34.2707 29.5751 32.5367 27.523 31.0406L27.4267 30.9704Z" fill="#242424"/>
<path fill-rule="evenodd" clip-rule="evenodd" d="M32.5411 22C34.8157 22 36.666 20.1494 36.666 17.8751C36.666 15.6006 34.8157 13.75 32.5411 13.75C30.2664 13.75 28.416 15.6006 28.416 17.8751C28.416 20.1494 30.2664 22 32.5411 22ZM32.5411 16.235C33.4452 16.235 34.181 16.9708 34.181 17.8751C34.181 18.7794 33.4452 19.515 32.5411 19.515C31.6368 19.515 30.901 18.7794 30.901 17.8751C30.901 16.9708 31.6368 16.235 32.5411 16.235Z" fill="#242424"/>
<rect x="17.875" y="8.70801" width="22.9167" height="32.0833" rx="4.125" stroke="#242424" stroke-width="2.75"/>
<path d="M8.02143 35.1084C3.92053 34.6072 2.15537 31.822 1.87458 25.9204C1.86407 25.6997 2.2024 25.6569 2.26374 25.8692C3.48153 30.0833 5.531 31.8084 8.02148 31.8084L8.02143 35.1084Z" fill="#242424"/>
<path d="M12.2149 32.6642C12.5598 33.0198 12.5598 33.585 12.2149 33.9406L9.59614 36.6406C9.02284 37.2316 8.02148 36.8258 8.02148 36.0023L8.02148 30.6025C8.02148 29.779 9.02285 29.3732 9.59614 29.9643L12.2149 32.6642Z" fill="#242424"/>
</svg>
