<svg width="24" height="24" viewBox="0 0 24 24" fill="none" xmlns="http://www.w3.org/2000/svg">
<path fill-rule="evenodd" clip-rule="evenodd" d="M4.32021 3.42793C4.64839 3.15653 5.13465 3.20271 5.40625 3.53079C5.67765 3.85897 5.63147 4.34523 5.30339 4.61683C4.35377 5.40303 3.5448 6.34662 2.91253 7.40251C2.69368 7.76802 2.21991 7.88669 1.85439 7.66789C1.48886 7.44903 1.36918 6.97539 1.58804 6.60986C2.31021 5.40375 3.23515 4.32619 4.32021 3.42793ZM13.0304 20.9988C17.9737 20.4792 21.5599 16.0507 21.0403 11.1073C20.5207 6.164 16.0922 2.57783 11.1488 3.09739C6.20551 3.61696 2.61934 8.04551 3.13891 12.9888C3.65847 17.9322 8.08703 21.5184 13.0304 20.9988ZM11.23 8.10698C10.8063 8.15151 10.4988 8.53117 10.5434 8.95488L10.9834 13.1418C11.0088 13.3832 11.1465 13.5987 11.3548 13.7233L14.2079 15.4286C14.5736 15.6472 15.0473 15.5279 15.2659 15.1622C15.4842 14.7967 15.365 14.3238 14.9997 14.1052L12.4776 12.5969L12.0779 8.7936C12.0333 8.36988 11.6537 8.06245 11.23 8.10698ZM16.6306 2.35107C16.828 1.97369 17.294 1.82742 17.6715 2.02466C18.9196 2.67769 20.0483 3.5394 21.0055 4.569C21.2956 4.88104 21.277 5.36921 20.9649 5.65929C20.6529 5.94931 20.1648 5.93173 19.8748 5.61971C19.0368 4.71835 18.0493 3.96357 16.957 3.39199C16.5796 3.19454 16.4333 2.72851 16.6306 2.35107Z" fill="black" fill-opacity="0.44"/>
</svg>
