<svg width="24" height="24" viewBox="0 0 24 24" fill="none" xmlns="http://www.w3.org/2000/svg">
<path fill-rule="evenodd" clip-rule="evenodd" d="M6.24055 2.04212C6.61799 1.84488 7.08402 1.99115 7.28147 2.36854C7.47871 2.74597 7.33244 3.212 6.95506 3.40945C5.86273 3.98103 4.87526 4.73581 4.03727 5.63717C3.74721 5.94919 3.25912 5.96677 2.94708 5.67676C2.63504 5.38667 2.61645 4.89851 2.90653 4.58647C3.86368 3.55687 4.99244 2.69516 6.24055 2.04212ZM11.1072 21.04C16.0505 21.5595 20.4791 17.9733 20.9986 13.03C21.5182 8.08668 17.932 3.65812 12.9887 3.13856C8.04536 2.61899 3.6168 6.20517 3.09724 11.1485C2.57767 16.0918 6.16385 20.5204 11.1072 21.04ZM12.0265 8.05554C11.6028 8.01101 11.2231 8.31844 11.1786 8.74216L10.7385 12.9291C10.7132 13.1705 10.803 13.4099 10.9809 13.5751L13.4171 15.8363C13.7293 16.1262 14.2175 16.108 14.5074 15.7957C14.7969 15.4836 14.7786 14.9962 14.4667 14.7064L12.3134 12.7067L12.7131 8.90344C12.7576 8.47973 12.4502 8.10008 12.0265 8.05554ZM18.5058 3.54826C18.7774 3.22018 19.2636 3.17399 19.5918 3.4454C20.6769 4.34366 21.6018 5.42122 22.324 6.62732C22.5428 6.99286 22.4232 7.46649 22.0576 7.68536C21.6921 7.90416 21.2183 7.78548 20.9995 7.41998C20.3672 6.36409 19.5583 5.42049 18.6086 4.63429C18.2806 4.36269 18.2344 3.87644 18.5058 3.54826Z" fill="black" fill-opacity="0.44"/>
</svg>
