<svg width="44" height="44" viewBox="0 0 44 44" fill="none" xmlns="http://www.w3.org/2000/svg">
<path d="M21.999 20.625C22.3843 20.625 22.7523 20.7864 23.0127 21.0703L28.0547 26.5703C28.5678 27.1301 28.5295 28.0005 27.9697 28.5137C27.4099 29.0262 26.5403 28.9883 26.0273 28.4287L23.374 25.5352V38.4424C23.374 39.2018 22.7584 39.8174 21.999 39.8174C21.2398 39.8171 20.624 39.2016 20.624 38.4424V25.5352L17.9717 28.4287C17.4585 28.9883 16.5881 29.0267 16.0283 28.5137C15.4687 28.0006 15.4314 27.1301 15.9443 26.5703L20.9854 21.0703C21.2457 20.7863 21.6138 20.6251 21.999 20.625ZM21.5703 3.20801C28.7718 3.20801 34.8566 7.9756 36.8467 14.5234C36.8494 14.5324 36.852 14.5418 36.8545 14.5508C37.3689 14.8127 37.8409 15.1056 38.2949 15.4111C38.3212 15.4288 38.3471 15.4473 38.3721 15.4668C41.5155 17.9145 43.541 21.7398 43.541 26.0371C43.5409 33.4316 37.5468 39.4257 30.1523 39.4258H27.958C27.1986 39.4258 26.583 38.8102 26.583 38.0508C26.5832 37.2915 27.1987 36.6758 27.958 36.6758H30.1523C36.0281 36.6757 40.7909 31.9128 40.791 26.0371C40.791 22.6407 39.2014 19.6161 36.7197 17.666C35.9083 17.123 35.1722 16.7244 34.251 16.4805C33.3065 16.2304 32.08 16.1206 30.2832 16.292C29.5272 16.3641 28.8553 15.8097 28.7832 15.0537C28.7111 14.2978 29.2656 13.6269 30.0215 13.5547C31.3719 13.4259 32.52 13.4292 33.5332 13.5518C31.421 9.06345 26.8568 5.95801 21.5703 5.95801C14.3761 5.95816 8.5244 11.708 8.36035 18.8623C8.34935 19.342 8.08924 19.7814 7.67383 20.0215C5.00145 21.5658 3.20811 24.4507 3.20801 27.7529C3.20801 32.6809 7.2029 36.6758 12.1309 36.6758H16.041C16.8003 36.6758 17.4158 37.2915 17.416 38.0508C17.416 38.8102 16.8004 39.4258 16.041 39.4258H12.1309C5.68412 39.4258 0.458008 34.1997 0.458008 27.7529C0.458107 23.7041 2.52066 20.1381 5.64648 18.0459C6.22439 9.75451 13.1325 3.20816 21.5703 3.20801Z" fill="#242424"/>
</svg>
