<svg width="48" height="48" viewBox="0 0 48 48" fill="none" xmlns="http://www.w3.org/2000/svg">
<path fill-rule="evenodd" clip-rule="evenodd" d="M19.9336 5.96663C22.541 4.01115 26.126 4.0111 28.7334 5.96663L39.7334 14.2166C41.5798 15.6015 42.6669 17.7748 42.667 20.0828V31.2664C42.667 35.3735 42.6665 37.4272 41.8672 38.9959C41.1641 40.3757 40.0419 41.498 38.6621 42.201C37.0935 43 35.04 42.9998 30.9336 42.9998H17.7334C13.6264 42.9998 11.5726 43.0003 10.0039 42.201C8.62405 41.4979 7.5019 40.3758 6.79883 38.9959C5.99957 37.4272 6 35.3734 6 31.2664V20.0828C6.0001 17.7747 7.0871 15.6015 8.93359 14.2166L19.9336 5.96663ZM18.6162 32.5496C17.7327 32.5498 17.0166 33.2667 17.0166 34.1502C17.0168 35.0336 17.7329 35.7496 18.6162 35.7498H30.083C30.9665 35.7498 31.6834 35.0337 31.6836 34.1502C31.6836 33.2666 30.9667 32.5496 30.083 32.5496H18.6162Z" fill="#205AEF"/>
</svg>
