<svg width="48" height="48" viewBox="0 0 48 48" fill="none" xmlns="http://www.w3.org/2000/svg">
<path d="M32.7588 7.59961C34.6836 7.59961 36.0387 7.60136 37.0986 7.68164C38.1417 7.76067 38.7689 7.90967 39.2578 8.1377C40.4789 8.70733 41.4607 9.68906 42.0303 10.9102C42.2582 11.399 42.4073 12.0264 42.4863 13.0693C42.5666 14.1292 42.5674 15.4837 42.5674 17.4082V28.5088C42.5674 30.4333 42.5666 31.7878 42.4863 32.8477C42.4073 33.8908 42.2583 34.5179 42.0303 35.0068C41.4607 36.228 40.4789 37.2097 39.2578 37.7793C38.7689 38.0073 38.1417 38.1563 37.0986 38.2354C36.0387 38.3156 34.6836 38.3164 32.7588 38.3164C31.9604 38.3164 31.4401 38.3143 30.9199 38.373C30.3872 38.4332 29.861 38.5418 29.3477 38.6963C28.8463 38.8472 28.3687 39.0536 27.6348 39.3682L25.6816 40.2061C24.7573 40.6022 24.538 40.6834 24.334 40.7168C24.1133 40.7529 23.8877 40.7529 23.667 40.7168C23.4631 40.6834 23.2438 40.6018 22.3203 40.2061L20.3662 39.3682C19.6324 39.0537 19.1546 38.8472 18.6533 38.6963C18.1402 38.5419 17.6145 38.4332 17.082 38.373C16.5618 38.3143 16.0408 38.3164 15.2422 38.3164C13.3176 38.3164 11.9632 38.3156 10.9033 38.2354C9.86025 38.1563 9.23303 38.0073 8.74414 37.7793C7.52295 37.2097 6.5413 36.228 5.97168 35.0068C5.74363 34.5179 5.59465 33.8909 5.51562 32.8477C5.43535 31.7878 5.43359 30.4333 5.43359 28.5088V17.4082C5.43359 15.4836 5.43536 14.1292 5.51562 13.0693C5.59464 12.0262 5.74367 11.3991 5.97168 10.9102C6.54129 9.68894 7.52293 8.70731 8.74414 8.1377C9.23305 7.90969 9.86017 7.76065 10.9033 7.68164C11.9632 7.60137 13.3176 7.59961 15.2422 7.59961C16.1094 7.59961 16.4223 7.60279 16.7227 7.63672C17.0644 7.67535 17.4021 7.74461 17.7314 7.84375C18.0208 7.93087 18.3095 8.05104 19.1064 8.39258L21.0596 9.23047C21.8389 9.56449 22.4721 9.84799 23.1514 9.95898C23.7137 10.0509 24.2873 10.0508 24.8496 9.95898C25.529 9.84798 26.1629 9.56453 26.9424 9.23047L28.8955 8.39258C29.6919 8.05128 29.9803 7.93085 30.2695 7.84375C30.599 7.74458 30.9374 7.67534 31.2793 7.63672C31.5795 7.60282 31.892 7.59961 32.7588 7.59961Z" stroke="#242424" stroke-width="3.2"/>
<path d="M23.9 8.75C24.7837 8.75 25.5 9.46634 25.5 10.35L25.5 26.4C25.5 27.2837 24.7837 28 23.9 28C23.0163 28 22.3 27.2837 22.3 26.4L22.3 10.35C22.3 9.46634 23.0163 8.75 23.9 8.75Z" fill="#242424"/>
</svg>
