<svg width="48" height="48" viewBox="0 0 48 48" fill="none" xmlns="http://www.w3.org/2000/svg">
<path d="M23.9998 3.44995C35.3488 3.44996 44.5484 12.6496 44.5496 23.9988L44.5417 24.615C44.4584 27.5178 43.756 30.3694 42.4851 32.9812C43.76 34.2096 44.5452 35.9307 44.5496 37.8181V37.822C44.5495 41.4275 41.7071 44.3607 38.1462 44.5408L37.7986 44.5496H23.9998C12.6499 44.5514 3.44995 35.3507 3.44995 24.0007C3.45006 12.6507 12.6501 3.45006 23.9998 3.44995ZM23.9998 6.54956C14.3624 6.54967 6.54967 14.3626 6.54956 24.0007C6.54956 33.639 14.3626 41.4517 23.9998 41.45H37.7986C39.8199 41.45 41.4483 39.8206 41.45 37.825L41.4451 37.6541C41.3591 35.8958 40.019 34.4405 38.2556 34.2244L37.0115 34.071L36.9001 32.822C36.6878 30.4305 34.767 28.5492 32.3718 28.3865C29.9531 28.2223 27.9872 29.6603 27.4587 31.9783L27.1072 33.5212L25.572 33.1375C25.3547 33.0833 24.6023 33.0643 23.7136 33.3015C22.8242 33.539 22.2238 33.9209 21.9753 34.2917L21.3074 35.2878L20.1755 34.8923C14.3322 32.8475 11.1525 26.5474 12.9773 20.6316C14.8024 14.7157 20.979 11.302 26.9587 12.905C32.7371 14.4542 36.3295 20.1511 35.321 25.9792C37.5424 26.9815 39.2206 28.9698 39.7996 31.3962C39.8014 31.3968 39.8035 31.3976 39.8054 31.3982C40.8893 29.0864 41.4536 26.5617 41.45 24.0027V24.0007C41.4498 14.3626 33.6372 6.54957 23.9998 6.54956ZM26.156 15.8992C21.7867 14.7279 17.273 17.2219 15.9392 21.5447C14.7031 25.5516 16.6103 29.798 20.2957 31.5876C21.102 30.9227 22.0792 30.5292 22.9138 30.3064C23.5441 30.1382 24.2142 30.037 24.8396 30.0115C26.0679 27.0031 28.9698 25.1654 32.2927 25.2791C32.9297 21.0812 30.3209 17.0158 26.156 15.8992Z" fill="#242424"/>
</svg>
