<svg width="48" height="48" viewBox="0 0 48 48" fill="none" xmlns="http://www.w3.org/2000/svg">
<path d="M15.4316 6.93262C16.1906 6.93262 16.4653 6.93509 16.7227 6.95996C17.7442 7.05874 18.7207 7.42936 19.5498 8.03418C19.7586 8.18653 19.9651 8.36799 20.5322 8.87207L21.1963 9.46191C21.4455 9.68347 21.7385 9.95604 22.0908 10.1553C22.3928 10.326 22.7194 10.4494 23.0586 10.5225C23.4542 10.6076 23.854 10.5996 24.1875 10.5996H29.501C32.0939 10.5996 33.9424 10.6014 35.3906 10.7197C36.8202 10.8365 37.7183 11.0594 38.4355 11.4248C39.8593 12.1502 41.0167 13.3077 41.7422 14.7314C42.1076 15.4487 42.3305 16.3468 42.4473 17.7764C42.5656 19.2245 42.5674 21.0731 42.5674 23.666V27.333C42.5674 29.9263 42.5656 31.7753 42.4473 33.2236C42.3305 34.6531 42.1076 35.5513 41.7422 36.2686C41.0167 37.6921 39.8592 38.8498 38.4355 39.5752C37.7183 39.9406 36.82 40.1635 35.3906 40.2803C33.9425 40.3986 32.0939 40.3994 29.501 40.3994H18.501C15.9077 40.3994 14.0586 40.3986 12.6104 40.2803C11.1808 40.1635 10.2827 39.9406 9.56543 39.5752C8.14178 38.8498 6.98424 37.6922 6.25879 36.2686C5.89334 35.5513 5.67052 34.6531 5.55371 33.2236C5.43538 31.7753 5.43359 29.9263 5.43359 27.333V16.9307C5.43359 14.5904 5.44293 13.668 5.59766 12.9355C6.21691 10.0054 8.50638 7.71593 11.4365 7.09668C12.169 6.94195 13.0914 6.93262 15.4316 6.93262Z" stroke="#242424" stroke-width="3.2"/>
<path d="M19 25.9375L24.5002 31.9375M24.5002 31.9375L30 25.9375M24.5002 31.9375V20" stroke="#242424" stroke-width="3.2" stroke-linecap="round" stroke-linejoin="round"/>
</svg>
