<svg width="64" height="64" viewBox="0 0 64 64" fill="none" xmlns="http://www.w3.org/2000/svg">
<path fill-rule="evenodd" clip-rule="evenodd" d="M36.3347 15C38.2059 15 39.9028 16.0922 40.6687 17.7895L41.9664 20.666L46.25 20.6667C48.8734 20.6667 51 22.7809 51 25.3889V44.2778C51 46.8858 48.8734 49 46.25 49H17.75C15.1266 49 13 46.8858 13 44.2778V25.3889C13 22.7809 15.1266 20.6667 17.75 20.6667L21.0611 20.666L22.3468 17.7998C23.1102 16.0969 24.81 15 26.6853 15H36.3347ZM32 27.2778C28.3273 27.2778 25.35 30.2377 25.35 33.8889C25.35 37.5401 28.3273 40.5 32 40.5C35.6727 40.5 38.65 37.5401 38.65 33.8889C38.65 30.2377 35.6727 27.2778 32 27.2778Z" fill="#B3B3B3"/>
</svg>
