<svg width="31" height="22" viewBox="0 0 31 22" fill="none" xmlns="http://www.w3.org/2000/svg">
<path fill-rule="evenodd" clip-rule="evenodd" d="M10.8975 16.8536C13.4588 14.6892 17.2102 14.6891 19.7715 16.8536C19.9002 16.97 19.9749 17.1343 19.9785 17.3077C19.9821 17.4813 19.9141 17.649 19.7901 17.7706L15.7793 21.8146C15.6617 21.9334 15.5012 22.0001 15.334 22.0001C15.1668 22.0001 15.0062 21.9334 14.8887 21.8146L10.8779 17.7706C10.754 17.6489 10.6858 17.4813 10.6895 17.3077C10.6931 17.1342 10.7685 16.97 10.8975 16.8536ZM5.54494 11.4581C11.0632 6.3294 19.6096 6.32943 25.1279 11.4581C25.2525 11.5784 25.3234 11.744 25.3252 11.9171C25.327 12.0901 25.2588 12.2562 25.1367 12.379L22.8184 14.7198C22.5794 14.9588 22.1934 14.9642 21.9483 14.7316C20.1361 13.092 17.7787 12.1845 15.334 12.1847C12.891 12.1857 10.5355 13.0931 8.72462 14.7316C8.47952 14.9642 8.09343 14.9588 7.85451 14.7198L5.53615 12.379C5.41407 12.2565 5.34604 12.09 5.34767 11.9171C5.34934 11.744 5.42031 11.5784 5.54494 11.4581ZM0.193373 6.07823C8.65717 -2.02607 22.0099 -2.02609 30.4736 6.07823C30.596 6.19852 30.6659 6.36276 30.667 6.53429C30.668 6.70598 30.5996 6.87144 30.4785 6.99327L28.1582 9.33409C27.9192 9.57416 27.531 9.57706 27.2881 9.34093C24.0634 6.27774 19.7835 4.56964 15.334 4.56944C10.8842 4.56947 6.604 6.27758 3.37892 9.34093C3.13622 9.57745 2.7477 9.57453 2.5088 9.33409L0.187514 6.99327C0.0665046 6.87136 -0.0011166 6.70598 1.39516e-05 6.53429C0.00123576 6.36271 0.0708515 6.19846 0.193373 6.07823Z" fill="white"/>
</svg>
