<svg width="34" height="22" viewBox="0 0 34 22" fill="none" xmlns="http://www.w3.org/2000/svg">
<path d="M4 13.333C5.10447 13.333 5.99984 14.2286 6 15.333V19.333C6 20.4376 5.10457 21.333 4 21.333H2C0.89543 21.333 0 20.4376 0 19.333V15.333C0.000164911 14.2286 0.895532 13.333 2 13.333H4ZM13.333 9.33301C14.4375 9.33301 15.3328 10.2286 15.333 11.333V19.333C15.333 20.4376 14.4376 21.333 13.333 21.333H11.333C10.2286 21.3328 9.33301 20.4375 9.33301 19.333V11.333C9.33317 10.2287 10.2287 9.33318 11.333 9.33301H13.333ZM22.667 4.66699C23.7714 4.66717 24.667 5.56253 24.667 6.66699V19.333C24.667 20.4375 23.7714 21.3328 22.667 21.333H20.667C19.5624 21.333 18.667 20.4376 18.667 19.333V6.66699C18.667 5.56242 19.5624 4.66699 20.667 4.66699H22.667ZM32 0C33.1046 0 34 0.89543 34 2V19.333C34 20.4376 33.1046 21.333 32 21.333H30C28.8954 21.333 28 20.4376 28 19.333V2C28 0.89543 28.8954 0 30 0H32Z" fill="white"/>
</svg>
