<svg width="48" height="48" viewBox="0 0 48 48" fill="none" xmlns="http://www.w3.org/2000/svg">
<rect width="48" height="48" rx="24" fill="#F6F7FA"/>
<path d="M31.8 29.4004C32.794 29.4006 33.5999 30.2062 33.5999 31.2002C33.5997 32.1941 32.7939 32.9998 31.8 33H16.1995C15.2055 32.9999 14.3998 32.1942 14.3997 31.2002C14.3997 30.2061 15.2054 29.4005 16.1995 29.4004H31.8ZM31.8 22.2002C32.794 22.2004 33.5999 23.006 33.5999 24C33.5999 24.994 32.794 25.7996 31.8 25.7998H16.1995C15.2054 25.7997 14.3997 24.994 14.3997 24C14.3997 23.006 15.2054 22.2003 16.1995 22.2002H31.8ZM31.8 15C32.7939 15.0002 33.5997 15.8059 33.5999 16.7998C33.5999 17.7938 32.794 18.5994 31.8 18.5996H16.1995C15.2054 18.5995 14.3997 17.7939 14.3997 16.7998C14.3998 15.8058 15.2055 15.0001 16.1995 15H31.8Z" fill="#242424"/>
</svg>
