<svg width="24" height="24" viewBox="0 0 24 24" fill="none" xmlns="http://www.w3.org/2000/svg">
<path d="M19.4331 10.6229C18.4867 8.3907 17.0714 7.04795 16.6543 7.08666C16.2371 7.12536 16.5757 7.68671 16.1814 8.69242C15.7871 9.69813 14.9952 10.1812 14.68 10.1812C14.6433 10.1849 14.6068 10.172 14.5798 10.1457C14.5475 10.1164 14.5265 10.0722 14.5329 10.0282C14.7493 8.53992 14.68 6.2231 13.5843 4.43786C12.7265 3.04027 11.9461 2.34799 10.6685 1.44848L9.62364 0.776679C9.56475 0.740578 9.49176 0.741152 9.43339 0.778174C9.37502 0.815195 9.34063 0.882736 9.34375 0.954212L9.43339 2.02383C9.46854 2.82409 9.21932 3.5898 9.00972 4.17702C8.7526 4.8983 8.41849 5.46858 7.95161 6.06283C7.62494 6.4801 7.17574 6.91379 6.76875 7.24435C5.78889 8.03519 5.15882 9.13568 4.60501 10.2952C3.55828 12.5114 3.48601 15.0965 4.40713 17.3733C5.24383 19.418 6.806 21.041 8.76312 21.899C9.77205 22.3429 10.8409 22.5682 11.9461 22.5682C13.0501 22.5682 14.1202 22.3429 15.1279 21.9018C16.0999 21.4776 16.9838 20.8588 17.7303 20.08C19.2666 18.4912 20.1306 16.322 20.1283 14.0589C20.1283 12.8694 19.8965 11.7141 19.4331 10.6229Z" fill="white"/>
<mask id="mask0_484_1246" style="mask-type:alpha" maskUnits="userSpaceOnUse" x="11" y="2" width="10" height="20">
<path opacity="0.6" d="M16.6538 7.08645C17.071 7.04774 18.4863 8.39049 19.4326 10.6227C19.8961 11.7139 20.1278 12.8692 20.1278 14.0587C20.1301 16.3217 19.2662 18.491 17.7298 20.0798C17.0274 20.8126 16.2033 21.4038 15.2986 21.8244C12.7344 17.1602 10.579 11.6634 11.1655 7.03217C11.4329 4.92022 11.8833 3.62726 12.431 2.90723C12.8339 3.33101 13.2012 3.81414 13.5839 4.43765C14.6796 6.2229 14.7488 8.53971 14.5325 10.028C14.5261 10.072 14.5471 10.1161 14.5793 10.1455C14.6064 10.1718 14.6429 10.1847 14.6796 10.181C14.9947 10.181 15.7867 9.69792 16.181 8.69221C16.3675 8.21655 16.39 7.84029 16.4061 7.57171C16.4241 7.27242 16.434 7.10685 16.6538 7.08645Z" fill="url(#paint0_linear_484_1246)"/>
</mask>
<g mask="url(#mask0_484_1246)">
<path d="M19.4331 10.6229C18.4867 8.3907 17.0714 7.04795 16.6543 7.08666C16.2371 7.12536 16.5757 7.68671 16.1814 8.69242C15.7871 9.69813 14.9952 10.1812 14.68 10.1812C14.6433 10.1849 14.6068 10.172 14.5798 10.1457C14.5475 10.1164 14.5265 10.0722 14.5329 10.0282C14.7493 8.53992 14.68 6.2231 13.5843 4.43786C12.7265 3.04027 11.9461 2.34799 10.6685 1.44848L9.62364 0.776679C9.56475 0.740578 9.49176 0.741152 9.43339 0.778174C9.37502 0.815195 9.34063 0.882736 9.34375 0.954212L9.43339 2.02383C9.46854 2.82409 9.21932 3.5898 9.00972 4.17702C8.7526 4.8983 8.41849 5.46858 7.95161 6.06283C7.62494 6.4801 7.17574 6.91379 6.76875 7.24435C5.78889 8.03519 5.15882 9.13568 4.60501 10.2952C3.55828 12.5114 3.48601 15.0965 4.40713 17.3733C5.24383 19.418 6.806 21.041 8.76312 21.899C9.77205 22.3429 10.8409 22.5682 11.9461 22.5682C13.0501 22.5682 14.1202 22.3429 15.1279 21.9018C16.0999 21.4776 16.9838 20.8588 17.7303 20.08C19.2666 18.4912 20.1306 16.322 20.1283 14.0589C20.1283 12.8694 19.8965 11.7141 19.4331 10.6229Z" fill="#F44837"/>
</g>
<defs>
<linearGradient id="paint0_linear_484_1246" x1="11.25" y1="9.37479" x2="20.4908" y2="17.3457" gradientUnits="userSpaceOnUse">
<stop stop-opacity="0.24"/>
<stop offset="0.95307" stop-opacity="0"/>
</linearGradient>
</defs>
</svg>
