<svg width="44" height="44" viewBox="0 0 44 44" fill="none" xmlns="http://www.w3.org/2000/svg">
<path d="M38.958 39.4166C39.7171 39.4168 40.3328 40.0325 40.333 40.7916C40.333 41.5509 39.7173 42.1665 38.958 42.1666H5.04102C4.28162 42.1666 3.66602 41.551 3.66602 40.7916C3.66619 40.0324 4.28173 39.4166 5.04102 39.4166H38.958ZM15.8584 4.58461C17.3771 1.95416 20.7406 1.05253 23.3711 2.57094L35.2793 9.44594C37.9099 10.9647 38.8117 14.329 37.293 16.9596L30.418 28.8668C28.8992 31.4974 25.5349 32.3993 22.9043 30.8805L22.0928 30.4118L20.4727 33.2184C19.9814 34.0692 19.0733 34.5934 18.0908 34.5934H9.57324C8.16203 34.5933 7.27975 33.0656 7.98535 31.8434L12.1318 24.6608L10.9961 24.0055L10.7549 23.858C8.31194 22.2774 7.5121 19.0402 8.9834 16.4918L15.8584 4.58461ZM21.9961 4.95277C20.6808 4.19367 18.9996 4.64442 18.2402 5.95961L11.3652 17.8668C10.6059 19.182 11.0561 20.8642 12.3711 21.6237L24.2793 28.4987C25.5946 29.2581 27.2767 28.8071 28.0361 27.4918L34.9111 15.5846C35.6705 14.2693 35.2196 12.5872 33.9043 11.8278L21.9961 4.95277Z" fill="#242424"/>
</svg>
