<svg width="44" height="44" viewBox="0 0 44 44" fill="none" xmlns="http://www.w3.org/2000/svg">
<path d="M38.958 39.4171C39.7173 39.4173 40.333 40.0328 40.333 40.7921C40.3328 41.5512 39.7171 42.1669 38.958 42.1671H5.04102C4.28178 42.1671 3.66627 41.5513 3.66602 40.7921C3.66602 40.0327 4.28162 39.4171 5.04102 39.4171H38.958ZM37.9717 1.83606C38.6374 1.78816 39.251 2.23038 39.4072 2.8927C39.8082 4.59386 40.1964 7.39709 39.4541 10.1847C38.8622 12.4071 37.5582 14.5712 35.1133 16.1202L35.1396 16.1359C35.7756 16.5038 36.01 17.3069 35.6719 17.9591C34.0424 21.1013 30.3311 23.6249 23.0596 25.6281C21.4462 26.0725 20.0079 26.4055 18.7363 26.6984C17.4524 26.9941 16.3658 27.2429 15.3965 27.5284C13.4935 28.0891 12.182 28.7516 11.0615 30.0118C9.46291 31.8101 8.8429 32.5767 7.50098 34.3019C7.09422 34.8248 6.37261 34.9841 5.78418 34.6798C5.19577 34.3754 4.90779 33.6938 5.09961 33.0597C5.47396 31.8222 5.88729 30.6268 6.33496 29.4728C13.6758 10.5495 30.2362 3.14628 37.8389 1.85267L37.9717 1.83606ZM36.9775 4.83606C30.1456 6.4653 17.522 12.6607 10.5137 26.8019C11.7408 25.8943 13.1036 25.3373 14.6191 24.8908C15.6843 24.5769 16.859 24.3087 18.1182 24.0187C19.3898 23.7258 20.7777 23.4041 22.3291 22.9767C28.176 21.366 31.0658 19.5499 32.5039 17.7882L31.502 17.2081C31.0394 16.9404 30.774 16.429 30.8213 15.8966C30.8687 15.3643 31.2202 14.9076 31.7227 14.7257C34.8816 13.5835 36.2434 11.5553 36.7969 9.47767C37.2234 7.87631 37.1742 6.20365 36.9775 4.83606Z" fill="#242424"/>
</svg>
