<svg width="44" height="44" viewBox="0 0 44 44" fill="none" xmlns="http://www.w3.org/2000/svg">
<path d="M32.9258 17.4165C34.8766 17.4165 36.6451 18.5655 37.4375 20.3481L41.3643 29.1831C44.0777 35.289 39.6076 42.1664 32.9258 42.1665C26.3483 42.1663 21.9145 35.5018 24.3662 29.4692L24.4883 29.1831L28.415 20.3481C29.2075 18.5657 30.9751 17.4166 32.9258 17.4165ZM31.166 1.8335C35.216 1.8335 38.4988 5.11657 38.499 9.1665V14.2085C38.499 14.9679 37.8834 15.5835 37.124 15.5835C36.3646 15.5835 35.749 14.9679 35.749 14.2085V9.1665C35.7488 6.63535 33.6972 4.5835 31.166 4.5835H10.999C8.46798 4.58367 6.41619 6.63546 6.41602 9.1665V33.0005C6.41619 35.5315 8.46798 37.5833 10.999 37.5835H19.708C20.4674 37.5835 21.083 38.1991 21.083 38.9585C21.083 39.7179 20.4674 40.3335 19.708 40.3335H10.999C7.07562 40.3333 3.87214 37.2521 3.67578 33.3774L3.66602 33.0005V9.1665C3.66619 5.11667 6.94919 1.83367 10.999 1.8335H31.166ZM32.9258 20.1665C32.0618 20.1666 31.2788 20.6759 30.9277 21.4653L27.001 30.2993C25.0954 34.5868 28.234 39.4163 32.9258 39.4165C37.6177 39.4164 40.7561 34.5868 38.8506 30.2993L34.9248 21.4653C34.5738 20.6758 33.7899 20.1665 32.9258 20.1665ZM19.708 19.2505C20.4672 19.2507 21.083 19.8662 21.083 20.6255C21.0828 21.3846 20.4671 22.0003 19.708 22.0005H13.291C12.5317 22.0005 11.9162 21.3847 11.916 20.6255C11.916 19.8661 12.5316 19.2505 13.291 19.2505H19.708ZM28.874 11.0005C29.6334 11.0005 30.249 11.6161 30.249 12.3755C30.2488 13.1347 29.6333 13.7505 28.874 13.7505H13.291C12.5317 13.7505 11.9162 13.1347 11.916 12.3755C11.916 11.6161 12.5316 11.0005 13.291 11.0005H28.874Z" fill="#242424"/>
</svg>
