<svg width="24" height="24" viewBox="0 0 24 24" fill="none" xmlns="http://www.w3.org/2000/svg">
<path fill-rule="evenodd" clip-rule="evenodd" d="M4.32021 3.42744C4.64839 3.15604 5.13465 3.20222 5.40625 3.5303C5.67765 3.85848 5.63147 4.34474 5.30339 4.61634C4.35377 5.40254 3.5448 6.34613 2.91253 7.40202C2.69368 7.76753 2.21991 7.88621 1.85439 7.6674C1.48886 7.44854 1.36918 6.9749 1.58804 6.60937C2.31021 5.40327 3.23515 4.32571 4.32021 3.42744ZM13.0304 20.9983C17.9737 20.4787 21.5599 16.0502 21.0403 11.1068C20.5207 6.16351 16.0922 2.57734 11.1488 3.0969C6.20551 3.61647 2.61934 8.04502 3.13891 12.9884C3.65847 17.9317 8.08703 21.5179 13.0304 20.9983ZM11.23 8.10649C10.8063 8.15103 10.4988 8.53068 10.5434 8.95439L10.9834 13.1413C11.0088 13.3827 11.1465 13.5982 11.3548 13.7228L14.2079 15.4281C14.5736 15.6467 15.0473 15.5274 15.2659 15.1617C15.4842 14.7962 15.365 14.3233 14.9997 14.1047L12.4776 12.5964L12.0779 8.79311C12.0333 8.36939 11.6537 8.06196 11.23 8.10649ZM16.6306 2.35058C16.828 1.9732 17.294 1.82693 17.6715 2.02417C18.9196 2.67721 20.0483 3.53891 21.0055 4.56851C21.2956 4.88055 21.277 5.36872 20.9649 5.6588C20.6529 5.94882 20.1648 5.93124 19.8748 5.61922C19.0368 4.71786 18.0493 3.96308 16.957 3.3915C16.5796 3.19405 16.4333 2.72802 16.6306 2.35058Z" fill="black" fill-opacity="0.44"/>
</svg>
