<svg width="34" height="22" viewBox="0 0 34 22" fill="none" xmlns="http://www.w3.org/2000/svg">
<path fill-rule="evenodd" clip-rule="evenodd" d="M32 0H30C28.8954 0 28 0.89543 28 2V19.3333C28 20.4379 28.8954 21.3333 30 21.3333H32C33.1046 21.3333 34 20.4379 34 19.3333V2C34 0.89543 33.1046 0 32 0ZM20.6667 4.66669H22.6667C23.7712 4.66669 24.6667 5.56212 24.6667 6.66669V19.3334C24.6667 20.4379 23.7712 21.3334 22.6667 21.3334H20.6667C19.5621 21.3334 18.6667 20.4379 18.6667 19.3334V6.66669C18.6667 5.56212 19.5621 4.66669 20.6667 4.66669ZM13.3333 9.33331H11.3333C10.2288 9.33331 9.33333 10.2287 9.33333 11.3333V19.3333C9.33333 20.4379 10.2288 21.3333 11.3333 21.3333H13.3333C14.4379 21.3333 15.3333 20.4379 15.3333 19.3333V11.3333C15.3333 10.2287 14.4379 9.33331 13.3333 9.33331ZM4 13.3333H2C0.89543 13.3333 0 14.2287 0 15.3333V19.3333C0 20.4379 0.89543 21.3333 2 21.3333H4C5.10457 21.3333 6 20.4379 6 19.3333V15.3333C6 14.2287 5.10457 13.3333 4 13.3333Z" fill="black"/>
</svg>
